<svg width="27" height="26" viewBox="0 0 27 26" fill="none" xmlns="http://www.w3.org/2000/svg">
<path d="M5.68859 16.3951C5.68859 17.917 4.51716 19.0878 2.99431 19.0878C1.47145 19.0878 0.300018 17.917 0.300018 16.3951C0.300018 14.8731 1.47145 13.7024 2.99431 13.7024H5.68859V16.3951Z" fill="#E01E5A"/>
<path d="M7.09427 16.3951C7.09427 14.8731 8.2657 13.7024 9.78856 13.7024C11.3114 13.7024 12.4828 14.8731 12.4828 16.3951V23.1853C12.4828 24.7073 11.3114 25.878 9.78856 25.878C8.2657 25.878 7.09427 24.7073 7.09427 23.1853V16.3951Z" fill="#E01E5A"/>
<path d="M9.78856 5.62438C8.2657 5.62438 7.09427 4.45365 7.09427 2.9317C7.09427 1.40974 8.2657 0.239014 9.78856 0.239014C11.3114 0.239014 12.4828 1.40974 12.4828 2.9317V5.62438H9.78856Z" fill="#36C5F0"/>
<path d="M9.78859 6.91211C11.3114 6.91211 12.4829 8.08284 12.4829 9.60479C12.4829 11.1267 11.3114 12.2975 9.78859 12.2975H2.9943C1.47145 12.2975 0.300018 11.1267 0.300018 9.60479C0.300018 8.08284 1.47145 6.91211 2.9943 6.91211H9.78859Z" fill="#36C5F0"/>
<path d="M20.6829 9.72198C20.6829 8.20003 21.8543 7.0293 23.3772 7.0293C24.9 7.0293 26.0715 8.20003 26.0715 9.72198C26.0715 11.2439 24.9 12.4147 23.3772 12.4147H20.6829V9.72198Z" fill="#2EB67D"/>
<path d="M19.2772 9.72194C19.2772 11.2439 18.1058 12.4146 16.5829 12.4146C15.0601 12.4146 13.8886 11.2439 13.8886 9.72194V2.93169C13.8886 1.40974 15.0601 0.239014 16.5829 0.239014C18.1058 0.239014 19.2772 1.40974 19.2772 2.93169V9.72194Z" fill="#2EB67D"/>
<path d="M16.5829 20.4927C18.1058 20.4927 19.2772 21.6634 19.2772 23.1854C19.2772 24.7073 18.1058 25.878 16.5829 25.878C15.0601 25.878 13.8886 24.7073 13.8886 23.1854V20.4927H16.5829Z" fill="#ECB22E"/>
<path d="M16.5829 19.2049C15.0601 19.2049 13.8886 18.0342 13.8886 16.5123C13.8886 14.9903 15.0601 13.8196 16.5829 13.8196H23.3772C24.9001 13.8196 26.0715 14.9903 26.0715 16.5123C26.0715 18.0342 24.9001 19.2049 23.3772 19.2049H16.5829Z" fill="#ECB22E"/>
</svg>
