<svg width="40" height="40" viewBox="0 0 40 40" fill="none" xmlns="http://www.w3.org/2000/svg">
<g clip-path="url(#clip0_185_371)">
<path d="M30.5263 9.47363H9.47369V30.5263H30.5263V9.47363Z" fill="white"/>
<path d="M30.5263 40.0001L40 30.5264H30.5263V40.0001Z" fill="#EA4335"/>
<path d="M40 9.47363H30.5263V30.5263H40V9.47363Z" fill="#FBBC04"/>
<path d="M30.5263 30.5264H9.47369V40.0001H30.5263V30.5264Z" fill="#34A853"/>
<path d="M0 30.5264V36.8422C0 38.5869 1.41316 40.0001 3.15789 40.0001H9.47368V30.5264H0Z" fill="#188038"/>
<path d="M40 9.47368V3.15789C40 1.41316 38.5868 0 36.8421 0H30.5263V9.47368H40Z" fill="#1967D2"/>
<path d="M30.5263 0H3.15789C1.41316 0 0 1.41316 0 3.15789V30.5263H9.47368V9.47368H30.5263V0Z" fill="#4285F4"/>
<path d="M13.7924 25.8053C13.0056 25.2738 12.4608 24.4974 12.1635 23.4711L13.9898 22.7185C14.1556 23.3501 14.445 23.8396 14.8582 24.1869C15.2687 24.5343 15.7687 24.7053 16.3529 24.7053C16.9503 24.7053 17.4634 24.5238 17.8924 24.1606C18.3213 23.7974 18.5371 23.3343 18.5371 22.7738C18.5371 22.2001 18.3108 21.7317 17.8582 21.3685C17.4056 21.0053 16.8371 20.8238 16.1582 20.8238H15.1029V19.0159H16.0503C16.6345 19.0159 17.1266 18.858 17.5266 18.5422C17.9266 18.2264 18.1266 17.7948 18.1266 17.2448C18.1266 16.7553 17.9477 16.3659 17.5898 16.0738C17.2319 15.7817 16.7792 15.6343 16.2292 15.6343C15.6924 15.6343 15.2661 15.7764 14.9503 16.0632C14.6347 16.3508 14.3975 16.714 14.2608 17.1185L12.4529 16.3659C12.6924 15.6869 13.1319 15.0869 13.7766 14.5685C14.4213 14.0501 15.245 13.7896 16.245 13.7896C16.9845 13.7896 17.6503 13.9317 18.2398 14.2185C18.8292 14.5053 19.2924 14.9027 19.6266 15.408C19.9608 15.9159 20.1266 16.4843 20.1266 17.1159C20.1266 17.7606 19.9713 18.3053 19.6608 18.7527C19.3503 19.2001 18.9687 19.5422 18.5161 19.7817V19.8896C19.1005 20.1305 19.6082 20.5263 19.9845 21.0343C20.3661 21.5474 20.5582 22.1606 20.5582 22.8764C20.5582 23.5922 20.3766 24.2317 20.0134 24.7922C19.6503 25.3527 19.1477 25.7948 18.5108 26.1159C17.8713 26.4369 17.1529 26.6001 16.3556 26.6001C15.4319 26.6027 14.5792 26.3369 13.7924 25.8053ZM25.0108 16.7422L23.0056 18.1922L22.0029 16.6711L25.6003 14.0764H26.9792V26.3159H25.0108V16.7422Z" fill="#4285F4"/>
</g>
<defs>
<clipPath id="clip0_185_371">
<rect width="40" height="40" fill="white"/>
</clipPath>
</defs>
</svg>
