<svg width="24" height="24" viewBox="0 0 24 24" fill="none" xmlns="http://www.w3.org/2000/svg">
<g clip-path="url(#clip0_185_1782)">
<path d="M16.98 -4.09079e-05C17.9168 -0.0323878 18.8505 0.126498 19.7239 0.466919C20.5973 0.807341 21.3922 1.32216 22.06 1.97996C22.7038 2.64776 23.2071 3.43785 23.5404 4.30351C23.8736 5.16918 24.0299 6.09286 24 7.01996V16.98C24 19.06 23.32 20.85 22.02 22.11C20.6409 23.3832 18.8159 24.0622 16.94 24H7.06C5.19976 24.0576 3.39201 23.3783 2.03 22.11C1.35485 21.4337 0.826185 20.6257 0.476935 19.7362C0.127686 18.8468 -0.0346623 17.8949 4.17558e-06 16.94V7.01996C4.17558e-06 2.79996 2.8 -4.09079e-05 7.02 -4.09079e-05H16.98ZM17.03 2.22996H7.06C5.61 2.22996 4.36 2.65996 3.53 3.47996C3.0865 3.95235 2.74279 4.5093 2.51943 5.11754C2.29606 5.72578 2.19763 6.37281 2.23 7.01996V16.94C2.23 18.44 2.66 19.64 3.53 20.52C4.50032 21.3782 5.76584 21.8263 7.06 21.77H16.94C18.2342 21.8263 19.4997 21.3782 20.47 20.52C20.9359 20.0591 21.3009 19.5064 21.5419 18.897C21.7829 18.2876 21.8946 17.6348 21.87 16.98V7.01996C21.9023 5.73263 21.4366 4.48248 20.57 3.52996C20.0976 3.08645 19.5407 2.74274 18.9324 2.51938C18.3242 2.29602 17.6772 2.19758 17.03 2.22996ZM12 5.75996C15.39 5.75996 18.2 8.55996 18.2 11.96C18.2 13.6043 17.5468 15.1813 16.3841 16.344C15.2213 17.5067 13.6443 18.16 12 18.16C10.3557 18.16 8.77867 17.5067 7.61594 16.344C6.45322 15.1813 5.8 13.6043 5.8 11.96C5.8 10.3156 6.45322 8.73862 7.61594 7.5759C8.77867 6.41317 10.3557 5.75996 12 5.75996ZM12 7.97996C10.9487 7.98522 9.94198 8.40517 9.1986 9.14855C8.45521 9.89194 8.03526 10.8987 8.03 11.95C8.03526 13.0012 8.45521 14.008 9.1986 14.7514C9.94198 15.4947 10.9487 15.9147 12 15.92C13.0513 15.9147 14.058 15.4947 14.8014 14.7514C15.5448 14.008 15.9647 13.0012 15.97 11.95C15.9647 10.8987 15.5448 9.89194 14.8014 9.14855C14.058 8.40517 13.0513 7.98522 12 7.97996ZM18.44 4.20996C18.8113 4.20996 19.1674 4.35746 19.43 4.62001C19.6925 4.88256 19.84 5.23866 19.84 5.60996C19.84 5.98126 19.6925 6.33736 19.43 6.59991C19.1674 6.86246 18.8113 7.00996 18.44 7.00996C18.0687 7.00996 17.7126 6.86246 17.4501 6.59991C17.1875 6.33736 17.04 5.98126 17.04 5.60996C17.04 5.23866 17.1875 4.88256 17.4501 4.62001C17.7126 4.35746 18.0687 4.20996 18.44 4.20996Z" fill="white"/>
</g>
<defs>
<clipPath id="clip0_185_1782">
<rect width="24" height="24" fill="white"/>
</clipPath>
</defs>
</svg>
