<svg width="24" height="24" viewBox="0 0 24 24" fill="none" xmlns="http://www.w3.org/2000/svg">
<path d="M11.9996 5V5.01V5ZM11.9996 12V12.01V12ZM11.9996 19V19.01V19ZM11.9996 6C11.7344 6 11.48 5.89464 11.2925 5.70711C11.1049 5.51957 10.9996 5.26522 10.9996 5C10.9996 4.73478 11.1049 4.48043 11.2925 4.29289C11.48 4.10536 11.7344 4 11.9996 4C12.2648 4 12.5191 4.10536 12.7067 4.29289C12.8942 4.48043 12.9996 4.73478 12.9996 5C12.9996 5.26522 12.8942 5.51957 12.7067 5.70711C12.5191 5.89464 12.2648 6 11.9996 6ZM11.9996 13C11.7344 13 11.48 12.8946 11.2925 12.7071C11.1049 12.5196 10.9996 12.2652 10.9996 12C10.9996 11.7348 11.1049 11.4804 11.2925 11.2929C11.48 11.1054 11.7344 11 11.9996 11C12.2648 11 12.5191 11.1054 12.7067 11.2929C12.8942 11.4804 12.9996 11.7348 12.9996 12C12.9996 12.2652 12.8942 12.5196 12.7067 12.7071C12.5191 12.8946 12.2648 13 11.9996 13ZM11.9996 20C11.7344 20 11.48 19.8946 11.2925 19.7071C11.1049 19.5196 10.9996 19.2652 10.9996 19C10.9996 18.7348 11.1049 18.4804 11.2925 18.2929C11.48 18.1054 11.7344 18 11.9996 18C12.2648 18 12.5191 18.1054 12.7067 18.2929C12.8942 18.4804 12.9996 18.7348 12.9996 19C12.9996 19.2652 12.8942 19.5196 12.7067 19.7071C12.5191 19.8946 12.2648 20 11.9996 20Z" stroke="#CCCCCC" stroke-width="2" stroke-linecap="round" stroke-linejoin="round"/>
</svg>
