<svg width="20" height="19" viewBox="0 0 20 19" fill="none" xmlns="http://www.w3.org/2000/svg">
<path d="M17.2435 1.97323C16.6193 1.3507 15.8106 0.946539 14.9379 0.820988C14.0653 0.695437 13.1755 0.855215 12.401 1.27651C11.638 1.26076 10.8797 1.39911 10.1714 1.68328C9.46318 1.96746 8.81952 2.39161 8.27901 2.93036L2.88163 8.32922C1.8516 9.39717 1.28199 10.8268 1.2954 12.3105C1.3088 13.7942 1.90414 15.2133 2.95331 16.2624C4.00247 17.3116 5.42158 17.9069 6.90526 17.9204C8.38894 17.9338 9.81858 17.3642 10.8865 16.3341L16.2854 10.9377C16.824 10.397 17.2481 9.75336 17.5325 9.04516C17.8169 8.33696 17.9557 7.57873 17.9407 6.8157C18.3618 6.04118 18.5214 5.15135 18.3958 4.27876C18.2701 3.40617 17.866 2.59751 17.2435 1.97323ZM16.8714 2.3463C17.4552 2.92771 17.8192 3.69359 17.9015 4.51338C17.9838 5.33317 17.7791 6.15611 17.3225 6.84191C16.8659 7.52771 16.1856 8.03392 15.3975 8.27423C14.6094 8.51454 13.7624 8.47408 13.0008 8.15975C12.2392 7.84541 11.6102 7.27667 11.2211 6.55046C10.8319 5.82426 10.7067 4.98556 10.8667 4.17735C11.0267 3.36913 11.4621 2.64144 12.0986 2.11832C12.7351 1.5952 13.5334 1.30904 14.3573 1.30863C15.2997 1.30789 16.2039 1.68108 16.8714 2.3463ZM10.5125 8.70427L10.5569 8.74627C11.4276 9.63634 11.9436 10.8135 12.0082 12.0569C10.7429 11.991 9.54695 11.4586 8.65132 10.5624C7.75569 9.6662 7.22395 8.46991 7.15882 7.20458C8.40293 7.26793 9.58072 7.78493 10.4695 8.65782L10.5125 8.70427ZM10.888 8.32922C10.8732 8.3144 10.8574 8.30056 10.8426 8.28623C10.2939 7.71622 9.9506 6.9798 9.86676 6.1931C9.78293 5.4064 9.96334 4.61418 10.3796 3.94135C10.2233 4.61609 10.2414 5.31949 10.4321 5.98532C10.6228 6.65114 10.9798 7.25747 11.4695 7.74721C11.9593 8.23694 12.5656 8.59397 13.2314 8.78466C13.8972 8.97535 14.6006 8.99342 15.2754 8.83719C14.6027 9.25423 13.8101 9.43504 13.0231 9.35101C12.236 9.26697 11.4995 8.92288 10.93 8.3732C10.9157 8.35887 10.9023 8.34355 10.888 8.32922ZM11.5996 1.84921C11.5551 1.88973 11.5116 1.93074 11.4686 1.97323L10.5125 2.93036C9.94269 3.50165 9.55464 4.22872 9.39717 5.02006C9.23969 5.81139 9.31983 6.63163 9.62749 7.37753C8.86919 6.95609 8.02349 6.71625 7.15684 6.67685C7.21541 5.47945 7.692 4.34049 8.50367 3.45821C9.31534 2.57594 10.4107 2.00622 11.5991 1.84822L11.5996 1.84921ZM6.96759 4.9894C6.76989 5.53161 6.65608 6.10081 6.6301 6.67735C6.05505 6.70204 5.48716 6.81452 4.94611 7.01088L6.96759 4.9894ZM3.2547 15.9625C2.55205 15.2599 2.06841 14.3684 1.86247 13.3963C1.65652 12.4242 1.73712 11.4132 2.09448 10.4859C2.45184 9.55872 3.0706 8.75514 3.8757 8.17268C4.6808 7.59022 5.63762 7.25392 6.6301 7.20458C6.6955 8.6105 7.2832 9.94141 8.27818 10.9368C9.27316 11.9323 10.6038 12.5206 12.0097 12.5866C11.9612 13.5792 11.6255 14.5363 11.0435 15.3417C10.4614 16.1471 9.65797 16.7662 8.73079 17.1237C7.80361 17.4812 6.79256 17.5618 5.82045 17.3557C4.84835 17.1495 3.95701 16.6656 3.2547 15.9625ZM12.1984 14.2776C12.3965 13.7346 12.5105 13.1645 12.5364 12.5871C13.1138 12.5612 13.6839 12.4472 14.2268 12.2492L12.1984 14.2776ZM15.9113 10.5647C15.0116 11.4659 13.808 11.999 12.5359 12.0594C12.4942 11.1929 12.254 10.3476 11.8338 9.58876C12.5805 9.89734 13.4019 9.97802 14.1945 9.82062C14.987 9.66322 15.7152 9.27479 16.2874 8.70427L17.0824 7.90032C17.1368 7.85189 17.1901 7.80149 17.2425 7.74911C17.2855 7.70612 17.3265 7.66215 17.3675 7.61767C17.217 8.73246 16.7059 9.76741 15.9123 10.5647H15.9113Z" fill="white"/>
</svg>
