<svg width="20" height="20" viewBox="0 0 20 20" fill="none" xmlns="http://www.w3.org/2000/svg">
<path d="M9.99957 7.5V10V7.5ZM9.99957 10V12.5V10ZM9.99957 10H12.4996H9.99957ZM9.99957 10H7.49957H9.99957ZM17.4996 10C17.4996 10.9849 17.3056 11.9602 16.9287 12.8701C16.5518 13.7801 15.9993 14.6069 15.3029 15.3033C14.6064 15.9997 13.7796 16.5522 12.8697 16.9291C11.9598 17.306 10.9845 17.5 9.99957 17.5C9.01466 17.5 8.03939 17.306 7.12945 16.9291C6.21951 16.5522 5.39271 15.9997 4.69627 15.3033C3.99983 14.6069 3.44739 13.7801 3.07048 12.8701C2.69357 11.9602 2.49957 10.9849 2.49957 10C2.49957 8.01088 3.28975 6.10322 4.69627 4.6967C6.10279 3.29018 8.01045 2.5 9.99957 2.5C11.9887 2.5 13.8963 3.29018 15.3029 4.6967C16.7094 6.10322 17.4996 8.01088 17.4996 10Z" stroke="#5A50D8" stroke-width="2" stroke-linecap="round" stroke-linejoin="round"/>
</svg>
