<svg width="193" height="24" viewBox="0 0 193 24" fill="none" xmlns="http://www.w3.org/2000/svg">
<path opacity="0.5" d="M8.88408 17.77C13.7909 17.77 17.7682 13.7927 17.7682 8.88592H24.0111V0H8.88224C3.97732 0 0 3.97732 0 8.88408C0 13.7927 3.97732 17.77 8.88408 17.77Z" fill="white"/>
<path d="M15.1289 6.23169C10.2221 6.23169 6.24481 10.209 6.24481 15.1158H0V23.9999H15.1289C20.0357 23.9999 24.013 20.0225 24.013 15.1158C24.013 10.2108 20.0357 6.23169 15.1289 6.23169Z" fill="white"/>
<path d="M30 15.2288V14.8895H33.6777V15.1568C33.6777 15.7601 33.9167 16.2125 34.3946 16.5141C34.8794 16.8158 35.5512 16.9666 36.41 16.9666C37.2619 16.9666 37.9026 16.8432 38.332 16.5964C38.7683 16.3496 38.9865 16.0171 38.9865 15.599C38.9865 15.1054 38.7926 14.7249 38.4047 14.4576C38.0238 14.1834 37.0334 13.8612 35.4335 13.491C33.7504 13.1003 32.4622 12.545 31.5687 11.8252C30.6753 11.0985 30.2251 10.1388 30.2182 8.94602C30.2182 7.51328 30.7723 6.40274 31.8804 5.6144C32.9886 4.81919 34.4673 4.42159 36.3165 4.42159C38.1519 4.42159 39.6272 4.83633 40.7422 5.66581C41.8643 6.49529 42.4253 7.64353 42.4253 9.11054V9.42931H38.8203V9.17224C38.8203 8.6581 38.609 8.24679 38.1865 7.9383C37.771 7.62296 37.1511 7.4653 36.3269 7.4653C35.5027 7.4653 34.9071 7.57498 34.54 7.79434C34.1729 8.01371 33.9894 8.31534 33.9894 8.69923C33.9894 9.09683 34.1937 9.40189 34.6023 9.6144C35.011 9.82005 35.9806 10.1114 37.5113 10.4884C39.1666 10.9066 40.4514 11.479 41.3656 12.2057C42.2798 12.9323 42.7404 13.9914 42.7473 15.383C42.7473 16.8706 42.1655 18.012 41.002 18.8072C39.8453 19.5955 38.3181 19.9897 36.4204 19.9897C34.5365 19.9897 32.9955 19.5887 31.7973 18.7866C30.5991 17.9846 30 16.7986 30 15.2288Z" fill="white"/>
<path d="M43.0411 11.8149V8.8946H50.4693V11.8149H43.0411ZM44.7657 16.1131V10.3136L44.7761 10.0257V6.36504H48.2564V15.8149C48.2564 16.3153 48.3568 16.6547 48.5577 16.8329C48.7586 17.0111 49.0287 17.1003 49.368 17.1003C49.5343 17.1003 49.7005 17.0831 49.8667 17.0488C50.0329 17.0077 50.1888 16.9597 50.3342 16.9049V19.6915C50.168 19.7738 49.9221 19.8423 49.5966 19.8972C49.278 19.9589 48.9248 19.9897 48.5369 19.9897C47.4011 19.9897 46.4868 19.6949 45.7942 19.1054C45.1085 18.509 44.7657 17.5116 44.7657 16.1131Z" fill="white"/>
<path d="M51.2825 16.5141C51.2825 15.2459 51.7951 14.3033 52.8201 13.6864C53.8452 13.0626 55.1334 12.7472 56.6848 12.7404H59.0535V12.2879C59.0535 11.9589 58.9185 11.6915 58.6483 11.4859C58.3782 11.2802 57.8969 11.1774 57.2043 11.1774C56.5255 11.1774 56.0407 11.2596 55.7498 11.4242C55.4658 11.5887 55.3239 11.8046 55.3239 12.072V12.2674H51.8851V12.072C51.8851 11.0437 52.3976 10.2074 53.4227 9.56298C54.4477 8.91859 55.7637 8.5964 57.3705 8.5964C58.9912 8.5964 60.2621 8.8946 61.1833 9.491C62.1044 10.0874 62.565 11.0266 62.565 12.3085V17.2853C62.565 17.7172 62.61 18.132 62.7001 18.5296C62.7901 18.9272 62.9078 19.2596 63.0533 19.527V19.6915H59.5938C59.5106 19.5407 59.4345 19.3419 59.3652 19.0951C59.3029 18.8415 59.2578 18.5981 59.2301 18.365C59.0085 18.7695 58.5548 19.126 57.8692 19.4344C57.1904 19.7361 56.3524 19.8869 55.355 19.8869C54.1915 19.8869 53.2218 19.6093 52.4461 19.054C51.6704 18.4987 51.2825 17.6521 51.2825 16.5141ZM54.8044 16.1851C54.8044 16.5141 54.9533 16.7849 55.2511 16.9974C55.549 17.2099 56.0234 17.3162 56.6744 17.3162C57.3809 17.3162 57.9523 17.1482 58.3886 16.8123C58.8319 16.4764 59.0535 16.048 59.0535 15.527V15.054H57.2458C56.4078 15.054 55.7914 15.15 55.3966 15.3419C55.0018 15.527 54.8044 15.8081 54.8044 16.1851Z" fill="white"/>
<path d="M63.638 11.8149V8.8946H71.0661V11.8149H63.638ZM65.3626 16.1131V10.3136L65.373 10.0257V6.36504H68.8533V15.8149C68.8533 16.3153 68.9537 16.6547 69.1546 16.8329C69.3554 17.0111 69.6255 17.1003 69.9649 17.1003C70.1311 17.1003 70.2973 17.0831 70.4636 17.0488C70.6298 17.0077 70.7856 16.9597 70.9311 16.9049V19.6915C70.7649 19.7738 70.519 19.8423 70.1935 19.8972C69.8749 19.9589 69.5216 19.9897 69.1338 19.9897C67.9979 19.9897 67.0837 19.6949 66.3911 19.1054C65.7054 18.509 65.3626 17.5116 65.3626 16.1131Z" fill="white"/>
<path d="M72.3053 15.1877V8.8946H75.8168V15.0026C75.8168 15.7566 75.9831 16.2605 76.3155 16.5141C76.6479 16.7678 77.0808 16.8946 77.6141 16.8946C78.1336 16.8946 78.5872 16.7575 78.9751 16.4833C79.3629 16.2091 79.6608 15.8732 79.8685 15.4756V8.8946H83.38V19.6915H80.014L79.9413 18.3959H79.8893C79.543 18.8895 79.0617 19.2665 78.4453 19.527C77.8288 19.7806 77.1293 19.9075 76.3467 19.9075C75.1762 19.9075 74.21 19.5441 73.4481 18.8175C72.6863 18.084 72.3053 16.874 72.3053 15.1877Z" fill="white"/>
<path d="M84.9309 16.1028L88.3489 16.1234V16.329C88.3489 16.7198 88.5324 17.0009 88.8995 17.1722C89.2666 17.3436 89.7514 17.4293 90.354 17.4293C90.9565 17.4293 91.4102 17.3539 91.7149 17.2031C92.0266 17.0523 92.1824 16.8363 92.1824 16.5553C92.1824 16.2605 92.0093 16.0411 91.663 15.8972C91.3167 15.7464 90.5133 15.5578 89.2527 15.3316C87.8398 15.078 86.8321 14.6769 86.2295 14.1285C85.6339 13.5733 85.3361 12.8672 85.3361 12.0103C85.3361 10.8929 85.8036 10.0428 86.7386 9.46015C87.6805 8.87746 88.9445 8.58612 90.5306 8.58612C92.1028 8.58612 93.3564 8.92202 94.2914 9.59383C95.2264 10.2656 95.6939 11.1534 95.6939 12.2571V12.4113H92.2759V12.2262C92.2759 11.8903 92.134 11.6332 91.85 11.455C91.573 11.2699 91.1435 11.1774 90.5618 11.1774C89.9869 11.1774 89.5748 11.2356 89.3255 11.3522C89.0761 11.4687 88.9515 11.6367 88.9515 11.856C88.9515 12.0891 89.0796 12.2845 89.3358 12.4422C89.599 12.5998 90.3886 12.7952 91.7045 13.0283C93.1729 13.2956 94.2256 13.6932 94.8628 14.2211C95.5069 14.7421 95.829 15.4653 95.829 16.3907C95.829 17.5424 95.3649 18.4336 94.4369 19.0643C93.5157 19.6881 92.179 20 90.4267 20C88.6883 20 87.3377 19.6915 86.375 19.0745C85.4123 18.4507 84.9309 17.5081 84.9309 16.2468V16.1028Z" fill="white"/>
<path d="M96.9227 15.2288V14.8895H100.6V15.1568C100.6 15.7601 100.839 16.2125 101.317 16.5141C101.802 16.8158 102.474 16.9666 103.333 16.9666C104.185 16.9666 104.825 16.8432 105.255 16.5964C105.691 16.3496 105.909 16.0171 105.909 15.599C105.909 15.1054 105.715 14.7249 105.327 14.4576C104.947 14.1834 103.956 13.8612 102.356 13.491C100.673 13.1003 99.3849 12.545 98.4915 11.8252C97.598 11.0985 97.1478 10.1388 97.1409 8.94602C97.1409 7.51328 97.695 6.40274 98.8032 5.6144C99.9113 4.81919 101.39 4.42159 103.239 4.42159C105.075 4.42159 106.55 4.83633 107.665 5.66581C108.787 6.49529 109.348 7.64353 109.348 9.11054V9.42931H105.743V9.17224C105.743 8.6581 105.532 8.24679 105.109 7.9383C104.694 7.62296 104.074 7.4653 103.25 7.4653C102.425 7.4653 101.83 7.57498 101.463 7.79434C101.096 8.01371 100.912 8.31534 100.912 8.69923C100.912 9.09683 101.116 9.40189 101.525 9.6144C101.934 9.82005 102.903 10.1114 104.434 10.4884C106.089 10.9066 107.374 11.479 108.288 12.2057C109.203 12.9323 109.663 13.9914 109.67 15.383C109.67 16.8706 109.088 18.012 107.925 18.8072C106.768 19.5955 105.241 19.9897 103.343 19.9897C101.459 19.9897 99.9183 19.5887 98.72 18.7866C97.5219 17.9846 96.9227 16.7986 96.9227 15.2288Z" fill="white"/>
<path d="M110.67 14.4473V14.1183C110.67 12.3976 111.231 11.0471 112.353 10.0668C113.482 9.07969 114.964 8.58612 116.8 8.58612C118.552 8.58612 119.889 8.994 120.81 9.80977C121.738 10.6187 122.24 11.6024 122.316 12.7609L122.337 12.9974H118.909V12.8329C118.909 12.4216 118.729 12.096 118.369 11.856C118.015 11.6093 117.486 11.4859 116.779 11.4859C115.955 11.4859 115.328 11.6949 114.899 12.1131C114.476 12.5244 114.265 13.1208 114.265 13.9023V14.6735C114.265 15.4619 114.469 16.0651 114.878 16.4833C115.287 16.9015 115.917 17.1105 116.769 17.1105C117.558 17.1105 118.112 16.9734 118.431 16.6992C118.75 16.4182 118.909 16.096 118.909 15.7326V15.599H122.327V15.7532C122.32 16.9117 121.835 17.9092 120.872 18.7455C119.917 19.5818 118.559 20 116.8 20C114.971 20 113.493 19.5064 112.364 18.5193C111.235 17.5321 110.67 16.1748 110.67 14.4473Z" fill="white"/>
<path d="M123.701 19.6915V4H127.202V10.509C127.521 9.988 127.964 9.5527 128.532 9.20308C129.1 8.85347 129.841 8.67866 130.755 8.67866C131.946 8.67866 132.902 9.04199 133.623 9.76864C134.343 10.4884 134.703 11.6812 134.703 13.347V19.6915H131.192V13.6144C131.192 12.922 131.025 12.4284 130.693 12.1337C130.367 11.8389 129.924 11.6915 129.363 11.6915C128.809 11.6915 128.359 11.8252 128.013 12.0925C127.666 12.3599 127.4 12.7472 127.213 13.2545V19.6915H123.701Z" fill="white"/>
<path d="M136.316 14.4473V14.1183C136.316 12.4387 136.881 11.0985 138.01 10.0977C139.139 9.08997 140.572 8.58612 142.311 8.58612C144.063 8.58612 145.441 9.05913 146.446 10.0051C147.457 10.9512 147.962 12.2639 147.962 13.9434V15.3419H138.685V13.0283H144.492V12.9357C144.499 12.5039 144.323 12.1337 143.963 11.8252C143.609 11.5167 143.041 11.3625 142.259 11.3625C141.469 11.3625 140.86 11.5784 140.43 12.0103C140.001 12.4353 139.786 13.066 139.786 13.9023V14.653C139.786 15.4619 140.011 16.0788 140.461 16.5039C140.919 16.9289 141.583 17.1414 142.456 17.1414C143.079 17.1414 143.62 17.0351 144.077 16.8226C144.541 16.6033 144.915 16.3668 145.199 16.1131L147.734 17.6452C147.36 18.3582 146.716 18.9306 145.801 19.3625C144.887 19.7875 143.81 20 142.57 20C140.638 20 139.111 19.4961 137.989 18.4884C136.874 17.4807 136.316 16.1337 136.316 14.4473Z" fill="white"/>
<path d="M148.879 14.4576V14.1285C148.879 12.5107 149.357 11.2014 150.313 10.2005C151.269 9.1928 152.509 8.68895 154.032 8.68895C154.787 8.68895 155.442 8.81234 155.996 9.05913C156.55 9.29906 156.976 9.61782 157.274 10.0154V4H160.775V19.6915H157.409L157.347 18.4165H157.305C157.056 18.8552 156.637 19.2117 156.048 19.4859C155.466 19.7601 154.798 19.8972 154.043 19.8972C152.429 19.8972 151.165 19.3967 150.251 18.3959C149.337 17.3882 148.879 16.0754 148.879 14.4576ZM152.464 14.6427C152.464 15.3419 152.671 15.8972 153.087 16.3085C153.51 16.7129 154.126 16.9152 154.936 16.9152C155.504 16.9152 155.986 16.7849 156.38 16.5244C156.775 16.2571 157.07 15.928 157.263 15.5373V13.0488C157.083 12.6512 156.803 12.3222 156.422 12.0617C156.048 11.8012 155.56 11.671 154.957 11.671C154.154 11.671 153.537 11.8766 153.108 12.2879C152.678 12.6924 152.464 13.2442 152.464 13.9434V14.6427Z" fill="white"/>
<path d="M162.887 15.1877V8.8946H166.398V15.0026C166.398 15.7566 166.565 16.2605 166.897 16.5141C167.229 16.7678 167.662 16.8946 168.196 16.8946C168.715 16.8946 169.169 16.7575 169.557 16.4833C169.944 16.2091 170.242 15.8732 170.45 15.4756V8.8946H173.961V19.6915H170.595L170.523 18.3959H170.471C170.124 18.8895 169.643 19.2665 169.027 19.527C168.41 19.7806 167.711 19.9075 166.928 19.9075C165.758 19.9075 164.791 19.5441 164.03 18.8175C163.268 18.084 162.887 16.874 162.887 15.1877Z" fill="white"/>
<path d="M176.177 19.6915V4H179.699V19.6915H176.177Z" fill="white"/>
<path d="M181.354 14.4473V14.1183C181.354 12.4387 181.918 11.0985 183.047 10.0977C184.176 9.08997 185.61 8.58612 187.348 8.58612C189.101 8.58612 190.479 9.05913 191.483 10.0051C192.494 10.9512 193 12.2639 193 13.9434V15.3419H183.723V13.0283H189.53V12.9357C189.537 12.5039 189.36 12.1337 189 11.8252C188.647 11.5167 188.079 11.3625 187.296 11.3625C186.507 11.3625 185.897 11.5784 185.468 12.0103C185.039 12.4353 184.824 13.066 184.824 13.9023V14.653C184.824 15.4619 185.049 16.0788 185.499 16.5039C185.956 16.9289 186.621 17.1414 187.494 17.1414C188.117 17.1414 188.657 17.0351 189.115 16.8226C189.579 16.6033 189.953 16.3668 190.237 16.1131L192.771 17.6452C192.397 18.3582 191.753 18.9306 190.839 19.3625C189.925 19.7875 188.848 20 187.608 20C185.676 20 184.149 19.4961 183.027 18.4884C181.911 17.4807 181.354 16.1337 181.354 14.4473Z" fill="white"/>
</svg>
