<svg width="344" height="543" viewBox="0 0 344 543" fill="none" xmlns="http://www.w3.org/2000/svg">
<mask id="path-1-inside-1_185_440" fill="white">
<path d="M422.932 362.916C441.118 367.005 454.928 363.168 472.147 363.336C489.366 363.503 510.303 367.845 528.963 383.33C547.721 398.967 564.398 426.049 553.583 443.928C542.98 461.826 504.885 470.521 486.464 487.415C468.157 504.178 469.637 529.008 464.491 525.695C459.346 522.383 447.672 491.078 428.201 495.387C408.942 499.715 381.984 539.807 361.082 547.105C340.293 554.273 325.773 528.667 320.953 500.548C316.035 472.279 321.03 441.517 328.969 413.439C336.909 385.361 347.907 359.835 364.728 353.296C381.663 346.625 404.534 358.809 422.932 362.916Z"/>
<path d="M418.88 339.426C441.956 344.619 459.48 339.746 481.329 339.958C503.178 340.171 529.746 345.686 553.424 365.357C577.226 385.22 598.388 419.621 584.665 442.332C571.21 465.068 522.871 476.113 499.497 497.573C476.266 518.866 478.145 550.407 471.615 546.199C465.086 541.992 450.273 502.227 425.566 507.699C401.128 513.197 366.92 564.124 340.398 573.396C314.019 582.5 295.594 549.974 289.479 514.256C283.238 478.346 289.576 439.27 299.65 403.603C309.725 367.936 323.68 335.512 345.025 327.205C366.513 318.731 395.535 334.208 418.88 339.426Z"/>
<path d="M414.955 317.11C442.768 323.353 463.89 317.495 490.225 317.75C516.559 318.006 548.582 324.636 577.12 348.283C605.809 372.16 631.315 413.515 614.775 440.817C598.558 468.148 540.295 481.425 512.122 507.223C484.122 532.82 486.386 570.736 478.516 565.678C470.646 560.62 452.793 512.817 423.014 519.396C393.558 526.005 352.328 587.226 320.36 598.372C288.566 609.316 266.359 570.215 258.988 527.278C251.466 484.11 259.104 437.135 271.247 394.259C283.39 351.383 300.21 312.405 325.937 302.419C351.837 292.233 386.817 310.837 414.955 317.11Z"/>
<path d="M409.51 285.398C443.895 293.133 470.007 285.874 502.563 286.191C535.12 286.508 574.708 294.722 609.989 324.019C645.456 353.602 676.988 404.838 656.54 438.663C636.492 472.524 564.463 488.974 529.634 520.936C495.019 552.649 497.818 599.625 488.089 593.358C478.359 587.091 456.288 527.867 419.473 536.018C383.059 544.206 332.087 620.055 292.566 633.864C253.26 647.424 225.806 598.979 216.693 545.783C207.395 492.3 216.838 434.102 231.85 380.981C246.861 327.86 267.656 279.569 299.461 267.197C331.48 254.576 374.725 277.627 409.51 285.398Z"/>
<path d="M404.825 258.384C444.864 267.389 475.27 258.939 513.18 259.307C551.091 259.676 597.189 269.24 638.271 303.35C679.571 337.792 716.289 397.446 692.478 436.828C669.133 476.253 585.259 495.405 544.703 532.617C504.396 569.54 507.655 624.234 496.326 616.938C484.996 609.641 459.295 540.687 416.427 550.177C374.024 559.71 314.67 648.021 268.651 664.098C222.881 679.885 190.912 623.482 180.301 561.546C169.473 499.277 180.469 431.518 197.949 369.67C215.43 307.822 239.643 251.597 276.679 237.193C313.964 222.499 364.319 249.336 404.825 258.384Z"/>
<path d="M400.14 231.37C445.833 241.646 480.533 232.003 523.798 232.424C567.062 232.844 619.67 243.758 666.554 282.681C713.686 321.983 755.589 390.055 728.415 434.993C701.774 479.981 606.055 501.835 559.772 544.299C513.772 586.432 517.492 648.843 504.562 640.517C491.633 632.191 462.303 553.507 413.38 564.336C364.989 575.215 297.253 675.986 244.735 694.332C192.501 712.347 156.018 647.985 143.908 577.31C131.551 506.254 144.1 428.933 164.049 358.359C183.998 287.784 211.631 223.626 253.897 207.189C296.447 190.421 353.914 221.045 400.14 231.37Z"/>
<path d="M394.695 199.658C446.96 211.426 486.65 200.383 536.136 200.865C585.623 201.346 645.796 213.844 699.423 258.417C753.333 303.425 801.262 381.378 770.181 432.839C739.708 484.357 630.224 509.384 577.284 558.012C524.669 606.261 528.924 677.732 514.135 668.198C499.346 658.663 465.798 568.557 409.839 580.958C354.489 593.416 277.012 708.815 216.941 729.824C157.196 750.454 115.465 676.75 101.614 595.815C87.4798 514.445 101.834 425.9 124.652 345.081C147.469 264.261 179.077 190.789 227.421 171.966C276.09 152.765 341.821 187.834 394.695 199.658Z"/>
<path d="M389.756 171.47C447.982 184.563 492.198 172.276 547.327 172.812C602.457 173.348 669.492 187.254 729.234 236.849C789.292 286.928 842.687 373.664 808.061 430.925C774.113 488.248 652.144 516.095 593.167 570.201C534.553 623.887 539.292 703.411 522.817 692.802C506.342 682.193 468.968 581.935 406.628 595.733C344.966 609.594 258.654 737.996 191.733 761.372C125.174 784.327 78.6846 702.318 63.2541 612.263C47.5081 521.725 63.4989 423.203 88.9188 333.278C114.339 243.352 149.55 161.601 203.407 140.658C257.626 119.293 330.854 158.313 389.756 171.47Z"/>
<path d="M383.678 136.234C449.239 150.985 499.026 137.142 561.101 137.746C623.176 138.35 698.657 154.016 765.925 209.89C833.549 266.308 893.671 364.023 854.683 428.532C816.458 493.11 679.123 524.482 612.716 585.438C546.717 645.92 552.053 735.51 533.503 723.558C514.952 711.606 472.869 598.657 402.675 614.202C333.245 629.817 236.059 774.473 160.707 800.808C85.7629 826.668 33.4165 734.279 16.042 632.824C-1.68768 530.826 16.3176 419.833 44.9401 318.524C73.5626 217.216 113.21 125.117 173.852 101.522C234.902 77.4524 317.355 121.412 383.678 136.234Z"/>
<path d="M377.347 99.8238C450.549 116.288 506.139 100.838 575.448 101.512C644.758 102.186 729.036 119.671 804.145 182.031C879.65 245 946.779 354.06 903.247 426.059C860.567 498.135 707.226 533.15 633.079 601.183C559.388 668.686 565.346 768.679 544.633 755.339C523.921 742 476.933 615.936 398.558 633.286C321.036 650.715 212.522 812.165 128.388 841.558C44.7096 870.421 -13.7378 767.304 -33.1373 654.071C-52.9333 540.23 -32.8295 416.35 -0.871063 303.279C31.0874 190.208 75.3558 87.4158 143.066 61.0814C211.231 34.2174 303.294 83.2815 377.347 99.8238Z"/>
<path d="M370.383 59.8901C451.99 78.2322 513.963 61.0195 591.231 61.7706C668.498 62.5216 762.454 82.0013 846.187 151.477C930.362 221.63 1005.2 343.134 956.668 423.346C909.088 503.647 738.139 542.656 655.479 618.451C573.326 693.656 579.968 805.057 556.877 790.196C533.786 775.334 481.404 634.887 394.03 654.217C307.606 673.634 186.632 853.505 92.8379 886.251C-0.449005 918.408 -65.6075 803.526 -87.2344 677.373C-109.304 550.543 -86.8913 412.53 -51.2634 286.558C-15.6354 160.586 33.7161 46.0664 109.201 16.7274C185.193 -13.2016 287.826 41.4604 370.383 59.8901Z"/>
<path d="M363.419 19.9564C453.431 40.177 521.786 21.2015 607.013 22.0294C692.239 22.8574 795.871 44.332 888.228 120.923C981.073 198.26 1063.62 332.207 1010.09 420.634C957.608 509.158 769.052 552.162 677.878 635.72C587.264 718.627 594.591 841.436 569.121 825.053C543.652 808.669 485.874 653.839 389.501 675.148C294.175 696.554 160.743 894.846 57.2875 930.945C-45.6076 966.394 -117.477 839.748 -141.332 700.676C-165.674 560.857 -140.953 408.71 -101.656 269.837C-62.3581 130.965 -7.9236 4.71706 75.3356 -27.6266C159.155 -60.6206 272.359 -0.360668 363.419 19.9564Z"/>
<path d="M426.351 382.883C440.41 386.032 451.087 383.077 464.399 383.206C477.711 383.335 493.898 386.679 508.324 398.608C522.826 410.652 535.72 431.512 527.359 445.284C519.161 459.07 489.709 465.768 475.468 478.781C461.315 491.693 462.459 510.819 458.481 508.267C454.503 505.716 445.478 481.603 430.425 484.921C415.535 488.255 394.693 519.137 378.534 524.759C362.462 530.279 351.236 510.556 347.51 488.897C343.708 467.122 347.569 443.427 353.707 421.799C359.846 400.172 368.348 380.51 381.353 375.473C394.445 370.334 412.127 379.719 426.351 382.883Z"/>
<path d="M429.643 401.676C439.729 403.941 447.389 401.815 456.939 401.908C466.489 402.001 478.101 404.406 488.45 412.986C498.854 421.65 508.103 436.654 502.105 446.56C496.224 456.477 475.096 461.294 464.879 470.655C454.726 479.942 455.547 493.699 452.693 491.864C449.839 490.029 443.365 472.684 432.565 475.071C421.884 477.469 406.932 499.682 395.34 503.726C383.81 507.697 375.756 493.51 373.083 477.931C370.356 462.268 373.126 445.225 377.529 429.668C381.933 414.111 388.032 399.969 397.362 396.345C406.754 392.649 419.439 399.4 429.643 401.676Z"/>
<path d="M432.555 418.119C439.127 419.611 444.117 418.211 450.339 418.272C456.561 418.333 464.126 419.917 470.869 425.567C477.647 431.272 483.673 441.154 479.765 447.677C475.934 454.208 462.169 457.38 455.512 463.544C448.897 469.66 449.432 478.72 447.573 477.511C445.713 476.303 441.495 464.881 434.459 466.453C427.5 468.032 417.759 482.66 410.206 485.323C402.694 487.938 397.447 478.595 395.706 468.336C393.929 458.021 395.734 446.797 398.602 436.553C401.471 426.308 405.445 416.995 411.524 414.609C417.643 412.175 425.907 416.62 432.555 418.119Z"/>
<path d="M434.834 431.039C438.655 431.923 441.556 431.093 445.174 431.129C448.791 431.165 453.19 432.104 457.11 435.452C461.051 438.833 464.554 444.689 462.282 448.555C460.055 452.424 452.051 454.304 448.182 457.957C444.335 461.582 444.646 466.95 443.565 466.234C442.484 465.518 440.032 458.749 435.941 459.681C431.895 460.617 426.232 469.285 421.841 470.863C417.473 472.413 414.423 466.876 413.41 460.797C412.377 454.685 413.426 448.033 415.094 441.962C416.762 435.891 419.073 430.372 422.607 428.959C426.164 427.516 430.969 430.15 434.834 431.039Z"/>
</mask>
<path d="M422.932 362.916C441.118 367.005 454.928 363.168 472.147 363.336C489.366 363.503 510.303 367.845 528.963 383.33C547.721 398.967 564.398 426.049 553.583 443.928C542.98 461.826 504.885 470.521 486.464 487.415C468.157 504.178 469.637 529.008 464.491 525.695C459.346 522.383 447.672 491.078 428.201 495.387C408.942 499.715 381.984 539.807 361.082 547.105C340.293 554.273 325.773 528.667 320.953 500.548C316.035 472.279 321.03 441.517 328.969 413.439C336.909 385.361 347.907 359.835 364.728 353.296C381.663 346.625 404.534 358.809 422.932 362.916Z" stroke="url(#paint0_linear_185_440)" stroke-width="2" mask="url(#path-1-inside-1_185_440)"/>
<path d="M418.88 339.426C441.956 344.619 459.48 339.746 481.329 339.958C503.178 340.171 529.746 345.686 553.424 365.357C577.226 385.22 598.388 419.621 584.665 442.332C571.21 465.068 522.871 476.113 499.497 497.573C476.266 518.866 478.145 550.407 471.615 546.199C465.086 541.992 450.273 502.227 425.566 507.699C401.128 513.197 366.92 564.124 340.398 573.396C314.019 582.5 295.594 549.974 289.479 514.256C283.238 478.346 289.576 439.27 299.65 403.603C309.725 367.936 323.68 335.512 345.025 327.205C366.513 318.731 395.535 334.208 418.88 339.426Z" stroke="url(#paint1_linear_185_440)" stroke-width="2" mask="url(#path-1-inside-1_185_440)"/>
<path d="M414.955 317.11C442.768 323.353 463.89 317.495 490.225 317.75C516.559 318.006 548.582 324.636 577.12 348.283C605.809 372.16 631.315 413.515 614.775 440.817C598.558 468.148 540.295 481.425 512.122 507.223C484.122 532.82 486.386 570.736 478.516 565.678C470.646 560.62 452.793 512.817 423.014 519.396C393.558 526.005 352.328 587.226 320.36 598.372C288.566 609.316 266.359 570.215 258.988 527.278C251.466 484.11 259.104 437.135 271.247 394.259C283.39 351.383 300.21 312.405 325.937 302.419C351.837 292.233 386.817 310.837 414.955 317.11Z" stroke="url(#paint2_linear_185_440)" stroke-width="2" mask="url(#path-1-inside-1_185_440)"/>
<path d="M409.51 285.398C443.895 293.133 470.007 285.874 502.563 286.191C535.12 286.508 574.708 294.722 609.989 324.019C645.456 353.602 676.988 404.838 656.54 438.663C636.492 472.524 564.463 488.974 529.634 520.936C495.019 552.649 497.818 599.625 488.089 593.358C478.359 587.091 456.288 527.867 419.473 536.018C383.059 544.206 332.087 620.055 292.566 633.864C253.26 647.424 225.806 598.979 216.693 545.783C207.395 492.3 216.838 434.102 231.85 380.981C246.861 327.86 267.656 279.569 299.461 267.197C331.48 254.576 374.725 277.627 409.51 285.398Z" stroke="url(#paint3_linear_185_440)" stroke-width="2" mask="url(#path-1-inside-1_185_440)"/>
<path d="M404.825 258.384C444.864 267.389 475.27 258.939 513.18 259.307C551.091 259.676 597.189 269.24 638.271 303.35C679.571 337.792 716.289 397.446 692.478 436.828C669.133 476.253 585.259 495.405 544.703 532.617C504.396 569.54 507.655 624.234 496.326 616.938C484.996 609.641 459.295 540.687 416.427 550.177C374.024 559.71 314.67 648.021 268.651 664.098C222.881 679.885 190.912 623.482 180.301 561.546C169.473 499.277 180.469 431.518 197.949 369.67C215.43 307.822 239.643 251.597 276.679 237.193C313.964 222.499 364.319 249.336 404.825 258.384Z" stroke="url(#paint4_linear_185_440)" stroke-width="2" mask="url(#path-1-inside-1_185_440)"/>
<path d="M400.14 231.37C445.833 241.646 480.533 232.003 523.798 232.424C567.062 232.844 619.67 243.758 666.554 282.681C713.686 321.983 755.589 390.055 728.415 434.993C701.774 479.981 606.055 501.835 559.772 544.299C513.772 586.432 517.492 648.843 504.562 640.517C491.633 632.191 462.303 553.507 413.38 564.336C364.989 575.215 297.253 675.986 244.735 694.332C192.501 712.347 156.018 647.985 143.908 577.31C131.551 506.254 144.1 428.933 164.049 358.359C183.998 287.784 211.631 223.626 253.897 207.189C296.447 190.421 353.914 221.045 400.14 231.37Z" stroke="url(#paint5_linear_185_440)" stroke-width="2" mask="url(#path-1-inside-1_185_440)"/>
<path d="M394.695 199.658C446.96 211.426 486.65 200.383 536.136 200.865C585.623 201.346 645.796 213.844 699.423 258.417C753.333 303.425 801.262 381.378 770.181 432.839C739.708 484.357 630.224 509.384 577.284 558.012C524.669 606.261 528.924 677.732 514.135 668.198C499.346 658.663 465.798 568.557 409.839 580.958C354.489 593.416 277.012 708.815 216.941 729.824C157.196 750.454 115.465 676.75 101.614 595.815C87.4798 514.445 101.834 425.9 124.652 345.081C147.469 264.261 179.077 190.789 227.421 171.966C276.09 152.765 341.821 187.834 394.695 199.658Z" stroke="url(#paint6_linear_185_440)" stroke-width="2" mask="url(#path-1-inside-1_185_440)"/>
<path d="M389.756 171.47C447.982 184.563 492.198 172.276 547.327 172.812C602.457 173.348 669.492 187.254 729.234 236.849C789.292 286.928 842.687 373.664 808.061 430.925C774.113 488.248 652.144 516.095 593.167 570.201C534.553 623.887 539.292 703.411 522.817 692.802C506.342 682.193 468.968 581.935 406.628 595.733C344.966 609.594 258.654 737.996 191.733 761.372C125.174 784.327 78.6846 702.318 63.2541 612.263C47.5081 521.725 63.4989 423.203 88.9188 333.278C114.339 243.352 149.55 161.601 203.407 140.658C257.626 119.293 330.854 158.313 389.756 171.47Z" stroke="url(#paint7_linear_185_440)" stroke-width="2" mask="url(#path-1-inside-1_185_440)"/>
<path d="M383.678 136.234C449.239 150.985 499.026 137.142 561.101 137.746C623.176 138.35 698.657 154.016 765.925 209.89C833.549 266.308 893.671 364.023 854.683 428.532C816.458 493.11 679.123 524.482 612.716 585.438C546.717 645.92 552.053 735.51 533.503 723.558C514.952 711.606 472.869 598.657 402.675 614.202C333.245 629.817 236.059 774.473 160.707 800.808C85.7629 826.668 33.4165 734.279 16.042 632.824C-1.68768 530.826 16.3176 419.833 44.9401 318.524C73.5626 217.216 113.21 125.117 173.852 101.522C234.902 77.4524 317.355 121.412 383.678 136.234Z" stroke="url(#paint8_linear_185_440)" stroke-width="2" mask="url(#path-1-inside-1_185_440)"/>
<path d="M377.347 99.8238C450.549 116.288 506.139 100.838 575.448 101.512C644.758 102.186 729.036 119.671 804.145 182.031C879.65 245 946.779 354.06 903.247 426.059C860.567 498.135 707.226 533.15 633.079 601.183C559.388 668.686 565.346 768.679 544.633 755.339C523.921 742 476.933 615.936 398.558 633.286C321.036 650.715 212.522 812.165 128.388 841.558C44.7096 870.421 -13.7378 767.304 -33.1373 654.071C-52.9333 540.23 -32.8295 416.35 -0.871063 303.279C31.0874 190.208 75.3558 87.4158 143.066 61.0814C211.231 34.2174 303.294 83.2815 377.347 99.8238Z" stroke="url(#paint9_linear_185_440)" stroke-width="2" mask="url(#path-1-inside-1_185_440)"/>
<path d="M370.383 59.8901C451.99 78.2322 513.963 61.0195 591.231 61.7706C668.498 62.5216 762.454 82.0013 846.187 151.477C930.362 221.63 1005.2 343.134 956.668 423.346C909.088 503.647 738.139 542.656 655.479 618.451C573.326 693.656 579.968 805.057 556.877 790.196C533.786 775.334 481.404 634.887 394.03 654.217C307.606 673.634 186.632 853.505 92.8379 886.251C-0.449005 918.408 -65.6075 803.526 -87.2344 677.373C-109.304 550.543 -86.8913 412.53 -51.2634 286.558C-15.6354 160.586 33.7161 46.0664 109.201 16.7274C185.193 -13.2016 287.826 41.4604 370.383 59.8901Z" stroke="url(#paint10_linear_185_440)" stroke-width="2" mask="url(#path-1-inside-1_185_440)"/>
<path d="M363.419 19.9564C453.431 40.177 521.786 21.2015 607.013 22.0294C692.239 22.8574 795.871 44.332 888.228 120.923C981.073 198.26 1063.62 332.207 1010.09 420.634C957.608 509.158 769.052 552.162 677.878 635.72C587.264 718.627 594.591 841.436 569.121 825.053C543.652 808.669 485.874 653.839 389.501 675.148C294.175 696.554 160.743 894.846 57.2875 930.945C-45.6076 966.394 -117.477 839.748 -141.332 700.676C-165.674 560.857 -140.953 408.71 -101.656 269.837C-62.3581 130.965 -7.9236 4.71706 75.3356 -27.6266C159.155 -60.6206 272.359 -0.360668 363.419 19.9564Z" stroke="url(#paint11_linear_185_440)" stroke-width="2" mask="url(#path-1-inside-1_185_440)"/>
<path d="M426.351 382.883C440.41 386.032 451.087 383.077 464.399 383.206C477.711 383.335 493.898 386.679 508.324 398.608C522.826 410.652 535.72 431.512 527.359 445.284C519.161 459.07 489.709 465.768 475.468 478.781C461.315 491.693 462.459 510.819 458.481 508.267C454.503 505.716 445.478 481.603 430.425 484.921C415.535 488.255 394.693 519.137 378.534 524.759C362.462 530.279 351.236 510.556 347.51 488.897C343.708 467.122 347.569 443.427 353.707 421.799C359.846 400.172 368.348 380.51 381.353 375.473C394.445 370.334 412.127 379.719 426.351 382.883Z" stroke="url(#paint12_linear_185_440)" stroke-width="2" mask="url(#path-1-inside-1_185_440)"/>
<path d="M429.643 401.676C439.729 403.941 447.389 401.815 456.939 401.908C466.489 402.001 478.101 404.406 488.45 412.986C498.854 421.65 508.103 436.654 502.105 446.56C496.224 456.477 475.096 461.294 464.879 470.655C454.726 479.942 455.547 493.699 452.693 491.864C449.839 490.029 443.365 472.684 432.565 475.071C421.884 477.469 406.932 499.682 395.34 503.726C383.81 507.697 375.756 493.51 373.083 477.931C370.356 462.268 373.126 445.225 377.529 429.668C381.933 414.111 388.032 399.969 397.362 396.345C406.754 392.649 419.439 399.4 429.643 401.676Z" stroke="url(#paint13_linear_185_440)" stroke-width="2" mask="url(#path-1-inside-1_185_440)"/>
<path d="M432.555 418.119C439.127 419.611 444.117 418.211 450.339 418.272C456.561 418.333 464.126 419.917 470.869 425.567C477.647 431.272 483.673 441.154 479.765 447.677C475.934 454.208 462.169 457.38 455.512 463.544C448.897 469.66 449.432 478.72 447.573 477.511C445.713 476.303 441.495 464.881 434.459 466.453C427.5 468.032 417.759 482.66 410.206 485.323C402.694 487.938 397.447 478.595 395.706 468.336C393.929 458.021 395.734 446.797 398.602 436.553C401.471 426.308 405.445 416.995 411.524 414.609C417.643 412.175 425.907 416.62 432.555 418.119Z" stroke="url(#paint14_linear_185_440)" stroke-width="2" mask="url(#path-1-inside-1_185_440)"/>
<path d="M434.834 431.039C438.655 431.923 441.556 431.093 445.174 431.129C448.791 431.165 453.19 432.104 457.11 435.452C461.051 438.833 464.554 444.689 462.282 448.555C460.055 452.424 452.051 454.304 448.182 457.957C444.335 461.582 444.646 466.95 443.565 466.234C442.484 465.518 440.032 458.749 435.941 459.681C431.895 460.617 426.232 469.285 421.841 470.863C417.473 472.413 414.423 466.876 413.41 460.797C412.377 454.685 413.426 448.033 415.094 441.962C416.762 435.891 419.073 430.372 422.607 428.959C426.164 427.516 430.969 430.15 434.834 431.039Z" stroke="url(#paint15_linear_185_440)" stroke-width="2" mask="url(#path-1-inside-1_185_440)"/>
<defs>
<linearGradient id="paint0_linear_185_440" x1="-47.5" y1="17.2605" x2="422.542" y2="480.872" gradientUnits="userSpaceOnUse">
<stop stop-color="white" stop-opacity="0.1"/>
<stop offset="1" stop-color="white" stop-opacity="0.04"/>
</linearGradient>
<linearGradient id="paint1_linear_185_440" x1="-47.5" y1="17.2605" x2="422.542" y2="480.872" gradientUnits="userSpaceOnUse">
<stop stop-color="white" stop-opacity="0.1"/>
<stop offset="1" stop-color="white" stop-opacity="0.04"/>
</linearGradient>
<linearGradient id="paint2_linear_185_440" x1="-47.5" y1="17.2605" x2="422.542" y2="480.872" gradientUnits="userSpaceOnUse">
<stop stop-color="white" stop-opacity="0.1"/>
<stop offset="1" stop-color="white" stop-opacity="0.04"/>
</linearGradient>
<linearGradient id="paint3_linear_185_440" x1="-47.5" y1="17.2605" x2="422.542" y2="480.872" gradientUnits="userSpaceOnUse">
<stop stop-color="white" stop-opacity="0.1"/>
<stop offset="1" stop-color="white" stop-opacity="0.04"/>
</linearGradient>
<linearGradient id="paint4_linear_185_440" x1="-47.5" y1="17.2605" x2="422.542" y2="480.872" gradientUnits="userSpaceOnUse">
<stop stop-color="white" stop-opacity="0.1"/>
<stop offset="1" stop-color="white" stop-opacity="0.04"/>
</linearGradient>
<linearGradient id="paint5_linear_185_440" x1="-47.5" y1="17.2605" x2="422.542" y2="480.872" gradientUnits="userSpaceOnUse">
<stop stop-color="white" stop-opacity="0.1"/>
<stop offset="1" stop-color="white" stop-opacity="0.04"/>
</linearGradient>
<linearGradient id="paint6_linear_185_440" x1="-47.5" y1="17.2605" x2="422.542" y2="480.872" gradientUnits="userSpaceOnUse">
<stop stop-color="white" stop-opacity="0.1"/>
<stop offset="1" stop-color="white" stop-opacity="0.04"/>
</linearGradient>
<linearGradient id="paint7_linear_185_440" x1="-47.5" y1="17.2605" x2="422.542" y2="480.872" gradientUnits="userSpaceOnUse">
<stop stop-color="white" stop-opacity="0.1"/>
<stop offset="1" stop-color="white" stop-opacity="0.04"/>
</linearGradient>
<linearGradient id="paint8_linear_185_440" x1="-47.5" y1="17.2605" x2="422.542" y2="480.872" gradientUnits="userSpaceOnUse">
<stop stop-color="white" stop-opacity="0.1"/>
<stop offset="1" stop-color="white" stop-opacity="0.04"/>
</linearGradient>
<linearGradient id="paint9_linear_185_440" x1="-47.5" y1="17.2605" x2="422.542" y2="480.872" gradientUnits="userSpaceOnUse">
<stop stop-color="white" stop-opacity="0.1"/>
<stop offset="1" stop-color="white" stop-opacity="0.04"/>
</linearGradient>
<linearGradient id="paint10_linear_185_440" x1="-47.5" y1="17.2605" x2="422.542" y2="480.872" gradientUnits="userSpaceOnUse">
<stop stop-color="white" stop-opacity="0.1"/>
<stop offset="1" stop-color="white" stop-opacity="0.04"/>
</linearGradient>
<linearGradient id="paint11_linear_185_440" x1="-47.5" y1="17.2605" x2="422.542" y2="480.872" gradientUnits="userSpaceOnUse">
<stop stop-color="white" stop-opacity="0.1"/>
<stop offset="1" stop-color="white" stop-opacity="0.04"/>
</linearGradient>
<linearGradient id="paint12_linear_185_440" x1="-47.5" y1="17.2605" x2="422.542" y2="480.872" gradientUnits="userSpaceOnUse">
<stop stop-color="white" stop-opacity="0.1"/>
<stop offset="1" stop-color="white" stop-opacity="0.04"/>
</linearGradient>
<linearGradient id="paint13_linear_185_440" x1="-47.5" y1="17.2605" x2="422.542" y2="480.872" gradientUnits="userSpaceOnUse">
<stop stop-color="white" stop-opacity="0.1"/>
<stop offset="1" stop-color="white" stop-opacity="0.04"/>
</linearGradient>
<linearGradient id="paint14_linear_185_440" x1="-47.5" y1="17.2605" x2="422.542" y2="480.872" gradientUnits="userSpaceOnUse">
<stop stop-color="white" stop-opacity="0.1"/>
<stop offset="1" stop-color="white" stop-opacity="0.04"/>
</linearGradient>
<linearGradient id="paint15_linear_185_440" x1="-47.5" y1="17.2605" x2="422.542" y2="480.872" gradientUnits="userSpaceOnUse">
<stop stop-color="white" stop-opacity="0.1"/>
<stop offset="1" stop-color="white" stop-opacity="0.04"/>
</linearGradient>
</defs>
</svg>
