<svg width="196" height="26" viewBox="0 0 196 26" fill="none" xmlns="http://www.w3.org/2000/svg">
<path d="M9.62439 19.2508C14.94 19.2508 19.2488 14.942 19.2488 9.62638H26.012V0H9.62239C4.30874 0 0 4.30874 0 9.62439C0 14.942 4.30874 19.2508 9.62439 19.2508Z" fill="#5A50D8"/>
<path d="M16.2281 2.63577C14.5054 1.00479 12.1785 0.00585938 9.6204 0.00585938C4.30675 0.00585938 0 4.31261 0 9.62426C0 14.9379 4.30675 19.2447 9.6204 19.2447C10.6572 19.2447 11.6541 19.0812 12.5893 18.7781L12.5952 18.7841L12.6112 18.7701C15.0537 17.9726 17.0675 16.222 18.212 13.9569L23.2385 9.63822L16.2321 2.63377L16.2281 2.63577Z" fill="url(#paint0_linear_185_75)"/>
<path d="M16.3896 6.75122C11.0739 6.75122 6.76518 11.06 6.76518 16.3756H0V26H16.3896C21.7052 26 26.014 21.6913 26.014 16.3756C26.014 11.062 21.7052 6.75122 16.3896 6.75122Z" fill="#00BBF9"/>
<path d="M33 16.2288V15.8895H36.6777V16.1568C36.6777 16.7601 36.9167 17.2125 37.3946 17.5141C37.8794 17.8158 38.5512 17.9666 39.41 17.9666C40.2619 17.9666 40.9026 17.8432 41.332 17.5964C41.7683 17.3496 41.9865 17.0171 41.9865 16.599C41.9865 16.1054 41.7926 15.7249 41.4047 15.4576C41.0238 15.1834 40.0334 14.8612 38.4335 14.491C36.7504 14.1003 35.4622 13.545 34.5687 12.8252C33.6753 12.0985 33.2251 11.1388 33.2182 9.94602C33.2182 8.51328 33.7723 7.40274 34.8804 6.6144C35.9886 5.81919 37.4673 5.42159 39.3165 5.42159C41.1519 5.42159 42.6272 5.83633 43.7422 6.66581C44.8643 7.49529 45.4253 8.64353 45.4253 10.1105V10.4293H41.8203V10.1722C41.8203 9.6581 41.609 9.24679 41.1865 8.9383C40.771 8.62296 40.1511 8.4653 39.3269 8.4653C38.5027 8.4653 37.9071 8.57498 37.54 8.79434C37.1729 9.01371 36.9894 9.31534 36.9894 9.69923C36.9894 10.0968 37.1937 10.4019 37.6023 10.6144C38.011 10.8201 38.9806 11.1114 40.5113 11.4884C42.1666 11.9066 43.4514 12.479 44.3656 13.2057C45.2798 13.9323 45.7404 14.9914 45.7473 16.383C45.7473 17.8706 45.1655 19.012 44.002 19.8072C42.8453 20.5955 41.3181 20.9897 39.4204 20.9897C37.5365 20.9897 35.9955 20.5887 34.7973 19.7866C33.5991 18.9846 33 17.7986 33 16.2288Z" fill="#212121"/>
<path d="M46.0411 12.8149V9.8946H53.4693V12.8149H46.0411ZM47.7657 17.1131V11.3136L47.7761 11.0257V7.36504H51.2564V16.8149C51.2564 17.3153 51.3568 17.6547 51.5577 17.8329C51.7586 18.0111 52.0287 18.1003 52.368 18.1003C52.5343 18.1003 52.7005 18.0831 52.8667 18.0488C53.0329 18.0077 53.1888 17.9597 53.3342 17.9049V20.6915C53.168 20.7738 52.9221 20.8423 52.5966 20.8972C52.278 20.9589 51.9248 20.9897 51.5369 20.9897C50.4011 20.9897 49.4868 20.6949 48.7942 20.1054C48.1085 19.509 47.7657 18.5116 47.7657 17.1131Z" fill="#212121"/>
<path d="M54.2825 17.5141C54.2825 16.2459 54.7951 15.3033 55.8201 14.6864C56.8452 14.0626 58.1334 13.7472 59.6848 13.7404H62.0535V13.2879C62.0535 12.9589 61.9185 12.6915 61.6483 12.4859C61.3782 12.2802 60.8969 12.1774 60.2043 12.1774C59.5255 12.1774 59.0407 12.2596 58.7498 12.4242C58.4658 12.5887 58.3239 12.8046 58.3239 13.072V13.2674H54.8851V13.072C54.8851 12.0437 55.3976 11.2074 56.4227 10.563C57.4477 9.91859 58.7637 9.5964 60.3705 9.5964C61.9912 9.5964 63.2621 9.8946 64.1833 10.491C65.1044 11.0874 65.565 12.0266 65.565 13.3085V18.2853C65.565 18.7172 65.61 19.132 65.7001 19.5296C65.7901 19.9272 65.9078 20.2596 66.0533 20.527V20.6915H62.5938C62.5106 20.5407 62.4345 20.3419 62.3652 20.0951C62.3029 19.8415 62.2578 19.5981 62.2301 19.365C62.0085 19.7695 61.5548 20.126 60.8692 20.4344C60.1904 20.7361 59.3524 20.8869 58.355 20.8869C57.1915 20.8869 56.2218 20.6093 55.4461 20.054C54.6704 19.4987 54.2825 18.6521 54.2825 17.5141ZM57.8044 17.1851C57.8044 17.5141 57.9533 17.7849 58.2511 17.9974C58.549 18.2099 59.0234 18.3162 59.6744 18.3162C60.3809 18.3162 60.9523 18.1482 61.3886 17.8123C61.8319 17.4764 62.0535 17.048 62.0535 16.527V16.054H60.2458C59.4078 16.054 58.7914 16.15 58.3966 16.3419C58.0018 16.527 57.8044 16.8081 57.8044 17.1851Z" fill="#212121"/>
<path d="M66.638 12.8149V9.8946H74.0661V12.8149H66.638ZM68.3626 17.1131V11.3136L68.373 11.0257V7.36504H71.8533V16.8149C71.8533 17.3153 71.9537 17.6547 72.1546 17.8329C72.3554 18.0111 72.6255 18.1003 72.9649 18.1003C73.1311 18.1003 73.2973 18.0831 73.4636 18.0488C73.6298 18.0077 73.7856 17.9597 73.9311 17.9049V20.6915C73.7649 20.7738 73.519 20.8423 73.1935 20.8972C72.8749 20.9589 72.5216 20.9897 72.1338 20.9897C70.9979 20.9897 70.0837 20.6949 69.3911 20.1054C68.7054 19.509 68.3626 18.5116 68.3626 17.1131Z" fill="#212121"/>
<path d="M75.3053 16.1877V9.8946H78.8168V16.0026C78.8168 16.7566 78.9831 17.2605 79.3155 17.5141C79.6479 17.7678 80.0808 17.8946 80.6141 17.8946C81.1336 17.8946 81.5872 17.7575 81.9751 17.4833C82.3629 17.2091 82.6608 16.8732 82.8685 16.4756V9.8946H86.38V20.6915H83.014L82.9413 19.3959H82.8893C82.543 19.8895 82.0617 20.2665 81.4453 20.527C80.8288 20.7806 80.1293 20.9075 79.3467 20.9075C78.1762 20.9075 77.21 20.5441 76.4481 19.8175C75.6863 19.084 75.3053 17.874 75.3053 16.1877Z" fill="#212121"/>
<path d="M87.9309 17.1028L91.3489 17.1234V17.329C91.3489 17.7198 91.5324 18.0009 91.8995 18.1722C92.2666 18.3436 92.7514 18.4293 93.354 18.4293C93.9565 18.4293 94.4102 18.3539 94.7149 18.2031C95.0266 18.0523 95.1824 17.8363 95.1824 17.5553C95.1824 17.2605 95.0093 17.0411 94.663 16.8972C94.3167 16.7464 93.5133 16.5578 92.2527 16.3316C90.8398 16.078 89.8321 15.6769 89.2295 15.1285C88.6339 14.5733 88.3361 13.8672 88.3361 13.0103C88.3361 11.8929 88.8036 11.0428 89.7386 10.4602C90.6805 9.87746 91.9445 9.58612 93.5306 9.58612C95.1028 9.58612 96.3564 9.92202 97.2914 10.5938C98.2264 11.2656 98.6939 12.1534 98.6939 13.2571V13.4113H95.2759V13.2262C95.2759 12.8903 95.134 12.6332 94.85 12.455C94.573 12.2699 94.1435 12.1774 93.5618 12.1774C92.9869 12.1774 92.5748 12.2356 92.3255 12.3522C92.0761 12.4687 91.9515 12.6367 91.9515 12.856C91.9515 13.0891 92.0796 13.2845 92.3358 13.4422C92.599 13.5998 93.3886 13.7952 94.7045 14.0283C96.1729 14.2956 97.2256 14.6932 97.8628 15.2211C98.5069 15.7421 98.829 16.4653 98.829 17.3907C98.829 18.5424 98.3649 19.4336 97.4369 20.0643C96.5157 20.6881 95.179 21 93.4267 21C91.6883 21 90.3377 20.6915 89.375 20.0745C88.4123 19.4507 87.9309 18.5081 87.9309 17.2468V17.1028Z" fill="#212121"/>
<path d="M99.9227 16.2288V15.8895H103.6V16.1568C103.6 16.7601 103.839 17.2125 104.317 17.5141C104.802 17.8158 105.474 17.9666 106.333 17.9666C107.185 17.9666 107.825 17.8432 108.255 17.5964C108.691 17.3496 108.909 17.0171 108.909 16.599C108.909 16.1054 108.715 15.7249 108.327 15.4576C107.947 15.1834 106.956 14.8612 105.356 14.491C103.673 14.1003 102.385 13.545 101.491 12.8252C100.598 12.0985 100.148 11.1388 100.141 9.94602C100.141 8.51328 100.695 7.40274 101.803 6.6144C102.911 5.81919 104.39 5.42159 106.239 5.42159C108.075 5.42159 109.55 5.83633 110.665 6.66581C111.787 7.49529 112.348 8.64353 112.348 10.1105V10.4293H108.743V10.1722C108.743 9.6581 108.532 9.24679 108.109 8.9383C107.694 8.62296 107.074 8.4653 106.25 8.4653C105.425 8.4653 104.83 8.57498 104.463 8.79434C104.096 9.01371 103.912 9.31534 103.912 9.69923C103.912 10.0968 104.116 10.4019 104.525 10.6144C104.934 10.8201 105.903 11.1114 107.434 11.4884C109.089 11.9066 110.374 12.479 111.288 13.2057C112.203 13.9323 112.663 14.9914 112.67 16.383C112.67 17.8706 112.088 19.012 110.925 19.8072C109.768 20.5955 108.241 20.9897 106.343 20.9897C104.459 20.9897 102.918 20.5887 101.72 19.7866C100.522 18.9846 99.9227 17.7986 99.9227 16.2288Z" fill="#212121"/>
<path d="M113.67 15.4473V15.1183C113.67 13.3976 114.231 12.0471 115.353 11.0668C116.482 10.0797 117.964 9.58612 119.8 9.58612C121.552 9.58612 122.889 9.994 123.81 10.8098C124.738 11.6187 125.24 12.6024 125.316 13.7609L125.337 13.9974H121.909V13.8329C121.909 13.4216 121.729 13.096 121.369 12.856C121.015 12.6093 120.486 12.4859 119.779 12.4859C118.955 12.4859 118.328 12.6949 117.899 13.1131C117.476 13.5244 117.265 14.1208 117.265 14.9023V15.6735C117.265 16.4619 117.469 17.0651 117.878 17.4833C118.287 17.9015 118.917 18.1105 119.769 18.1105C120.558 18.1105 121.112 17.9734 121.431 17.6992C121.75 17.4182 121.909 17.096 121.909 16.7326V16.599H125.327V16.7532C125.32 17.9117 124.835 18.9092 123.872 19.7455C122.917 20.5818 121.559 21 119.8 21C117.971 21 116.493 20.5064 115.364 19.5193C114.235 18.5321 113.67 17.1748 113.67 15.4473Z" fill="#212121"/>
<path d="M126.701 20.6915V5H130.202V11.509C130.521 10.988 130.964 10.5527 131.532 10.2031C132.1 9.85347 132.841 9.67866 133.755 9.67866C134.946 9.67866 135.902 10.042 136.623 10.7686C137.343 11.4884 137.703 12.6812 137.703 14.347V20.6915H134.192V14.6144C134.192 13.922 134.025 13.4284 133.693 13.1337C133.367 12.8389 132.924 12.6915 132.363 12.6915C131.809 12.6915 131.359 12.8252 131.013 13.0925C130.666 13.3599 130.4 13.7472 130.213 14.2545V20.6915H126.701Z" fill="#212121"/>
<path d="M139.316 15.4473V15.1183C139.316 13.4387 139.881 12.0985 141.01 11.0977C142.139 10.09 143.572 9.58612 145.311 9.58612C147.063 9.58612 148.441 10.0591 149.446 11.0051C150.457 11.9512 150.962 13.2639 150.962 14.9434V16.3419H141.685V14.0283H147.492V13.9357C147.499 13.5039 147.323 13.1337 146.963 12.8252C146.609 12.5167 146.041 12.3625 145.259 12.3625C144.469 12.3625 143.86 12.5784 143.43 13.0103C143.001 13.4353 142.786 14.066 142.786 14.9023V15.653C142.786 16.4619 143.011 17.0788 143.461 17.5039C143.919 17.9289 144.583 18.1414 145.456 18.1414C146.079 18.1414 146.62 18.0351 147.077 17.8226C147.541 17.6033 147.915 17.3668 148.199 17.1131L150.734 18.6452C150.36 19.3582 149.716 19.9306 148.801 20.3625C147.887 20.7875 146.81 21 145.57 21C143.638 21 142.111 20.4961 140.989 19.4884C139.874 18.4807 139.316 17.1337 139.316 15.4473Z" fill="#212121"/>
<path d="M151.879 15.4576V15.1285C151.879 13.5107 152.357 12.2014 153.313 11.2005C154.269 10.1928 155.509 9.68895 157.032 9.68895C157.787 9.68895 158.442 9.81234 158.996 10.0591C159.55 10.2991 159.976 10.6178 160.274 11.0154V5H163.775V20.6915H160.409L160.347 19.4165H160.305C160.056 19.8552 159.637 20.2117 159.048 20.4859C158.466 20.7601 157.798 20.8972 157.043 20.8972C155.429 20.8972 154.165 20.3967 153.251 19.3959C152.337 18.3882 151.879 17.0754 151.879 15.4576ZM155.464 15.6427C155.464 16.3419 155.671 16.8972 156.087 17.3085C156.51 17.7129 157.126 17.9152 157.936 17.9152C158.504 17.9152 158.986 17.7849 159.38 17.5244C159.775 17.2571 160.07 16.928 160.263 16.5373V14.0488C160.083 13.6512 159.803 13.3222 159.422 13.0617C159.048 12.8012 158.56 12.671 157.957 12.671C157.154 12.671 156.537 12.8766 156.108 13.2879C155.678 13.6924 155.464 14.2442 155.464 14.9434V15.6427Z" fill="#212121"/>
<path d="M165.887 16.1877V9.8946H169.398V16.0026C169.398 16.7566 169.565 17.2605 169.897 17.5141C170.229 17.7678 170.662 17.8946 171.196 17.8946C171.715 17.8946 172.169 17.7575 172.557 17.4833C172.944 17.2091 173.242 16.8732 173.45 16.4756V9.8946H176.961V20.6915H173.595L173.523 19.3959H173.471C173.124 19.8895 172.643 20.2665 172.027 20.527C171.41 20.7806 170.711 20.9075 169.928 20.9075C168.758 20.9075 167.791 20.5441 167.03 19.8175C166.268 19.084 165.887 17.874 165.887 16.1877Z" fill="#212121"/>
<path d="M179.177 20.6915V5H182.699V20.6915H179.177Z" fill="#212121"/>
<path d="M184.354 15.4473V15.1183C184.354 13.4387 184.918 12.0985 186.047 11.0977C187.176 10.09 188.61 9.58612 190.348 9.58612C192.101 9.58612 193.479 10.0591 194.483 11.0051C195.494 11.9512 196 13.2639 196 14.9434V16.3419H186.723V14.0283H192.53V13.9357C192.537 13.5039 192.36 13.1337 192 12.8252C191.647 12.5167 191.079 12.3625 190.296 12.3625C189.507 12.3625 188.897 12.5784 188.468 13.0103C188.039 13.4353 187.824 14.066 187.824 14.9023V15.653C187.824 16.4619 188.049 17.0788 188.499 17.5039C188.956 17.9289 189.621 18.1414 190.494 18.1414C191.117 18.1414 191.657 18.0351 192.115 17.8226C192.579 17.6033 192.953 17.3668 193.237 17.1131L195.771 18.6452C195.397 19.3582 194.753 19.9306 193.839 20.3625C192.925 20.7875 191.848 21 190.608 21C188.676 21 187.149 20.4961 186.027 19.4884C184.911 18.4807 184.354 17.1337 184.354 15.4473Z" fill="#212121"/>
<defs>
<linearGradient id="paint0_linear_185_75" x1="-0.355426" y1="0.254993" x2="13.3102" y2="13.0887" gradientUnits="userSpaceOnUse">
<stop offset="0.2322" stop-color="#2F2D8C"/>
<stop offset="0.3879" stop-color="#323092"/>
<stop offset="0.5872" stop-color="#3B37A1"/>
<stop offset="0.8091" stop-color="#4A43BC"/>
<stop offset="1" stop-color="#5A50D8"/>
</linearGradient>
</defs>
</svg>
