<svg width="2270" height="1610" viewBox="0 0 2270 1610" fill="none" xmlns="http://www.w3.org/2000/svg">
<path opacity="0.15" d="M1261.37 1043.93C1148.8 907.073 788.062 588.735 713.967 876.419C641.076 1159.43 1537 740.5 1704.5 945C1844 1063.5 2106 755.3 2268 720.5" stroke="#FFCBCB" stroke-width="2" stroke-linecap="round"/>
<path opacity="0.15" d="M1422.97 428.155C1460.68 287.401 1153.94 477.5 913.443 360C489.045 152.654 1119.53 1005.94 1403.44 825.5C1787.62 581.338 1604 415.066 1829 336.5C2197 208 2127.82 541.265 2080 825.5" stroke="#CDD5FF" stroke-width="2" stroke-linecap="round"/>
<path opacity="0.15" d="M1.49945 698C89.0994 709.6 98.9995 835.727 269.519 932.693C531.42 1081.62 737.366 771.982 717.132 593.58C700.944 450.858 485.186 439.488 379.33 451.643C233.499 468.389 130.299 637.3 55.4995 560.5" stroke="#79AFFF" stroke-width="2" stroke-linecap="round"/>
</svg>
